<?xml version="1.0" encoding="utf-8"?>
<!-- Generator: Adobe Illustrator 27.1.1, SVG Export Plug-In . SVG Version: 6.00 Build 0)  -->
<svg version="1.1" id="Calque_1" xmlns="http://www.w3.org/2000/svg" xmlns:xlink="http://www.w3.org/1999/xlink" x="0px" y="0px"
	 viewBox="0 0 5000 5000" style="enable-background:new 0 0 5000 5000;" xml:space="preserve">
<style type="text/css">
	.st0{display:none;fill:#FFFFFF;}
	.st1{fill:url(#SVGID_1_);}
</style>
<g>
	<g>
		<circle class="st0" cx="2500" cy="2499.8" r="2143.8"/>
		<linearGradient id="SVGID_1_" gradientUnits="userSpaceOnUse" x1="356.25" y1="2499.75" x2="4643.75" y2="2499.75">
			<stop  offset="0" style="stop-color:#E7246B"/>
			<stop  offset="1" style="stop-color:#EB5C59"/>
		</linearGradient>
		<path class="st1" d="M2500,356c-1184,0-2143.8,959.8-2143.8,2143.8c0,786.4,423.5,1473.7,1054.8,1846.8V4272
			c0-405.6,215.3-780.8,565.5-985.4l1376.3-804.3v518.9c0,234.3-125.3,450.8-328.4,567.6l-526.6,302.7
			c-203.2,116.8-328.4,333.2-328.4,567.6v179.1c107.8,16.7,218.2,25.4,330.6,25.4c1184,0,2143.8-959.8,2143.8-2143.7
			S3684,356,2500,356z M3589,1522.7c0,230.9-123.3,444.1-323.5,559.3L1880.2,2879c-219.2,126.1-385.7,326.8-469.2,565.4v-837.3
			c0-230.9,123.4-444.1,323.5-559.3L3589,980.9V1522.7z"/>
	</g>
</g>
<g>
</g>
<g>
</g>
<g>
</g>
<g>
</g>
<g>
</g>
<g>
</g>
</svg>
