<?xml version="1.0" encoding="UTF-8"?>
<svg id="Layer_2" data-name="Layer 2" xmlns="http://www.w3.org/2000/svg" viewBox="0 0 570.31 246.6">
  <defs>
    <style>
      .cls-1 {
        fill: #000;
      }

      .cls-1, .cls-2, .cls-3 {
        stroke-width: 0px;
      }

      .cls-2 {
        fill: #0858fe;
      }

      .cls-3 {
        fill: #fff;
      }
    </style>
  </defs>
  <g id="Layer_1-2">
    <g>
      <g>
        <path class="cls-1" d="M155.12,30.57v12.45h26.29v66.84h14.75V43.01h26.29v-12.45h-67.32Z"/>
        <path class="cls-1" d="M272.84,29.43c-24.59,0-42.72,17.32-42.72,40.78s18.13,40.78,42.72,40.78,42.72-17.22,42.72-40.78-18.13-40.78-42.72-40.78ZM272.84,98.09c-15.98,0-27.88-11.66-27.88-27.88s11.89-27.88,27.88-27.88,27.88,11.66,27.88,27.88-11.89,27.88-27.88,27.88Z"/>
        <path class="cls-1" d="M371.74,66.02l33.31-35.45h-16.54l-39.21,40.65V30.57h-14.72v79.29h14.72v-20.28l12.57-12.9,28,33.18h17.22l-35.35-43.83Z"/>
        <path class="cls-1" d="M435.27,97.5v-21.87h38.3v-12.12h-38.3v-20.6h43.18v-12.35h-57.9v79.29h59.49v-12.35h-44.77Z"/>
        <path class="cls-1" d="M555.71,30.57v53.68l-43.73-53.68h-12.12v79.29h14.59v-53.68l43.73,53.68h12.12V30.57h-14.59Z"/>
        <path class="cls-1" d="M223.22,150.2v-12.35h-57.9v79.31h14.75v-30.38h38.28v-12.45h-38.28v-24.14h43.15Z"/>
        <path class="cls-1" d="M255.61,204.69v-66.84h-14.72v79.31h56.18v-12.47h-41.46Z"/>
        <path class="cls-1" d="M326.87,204.82v-21.87h38.31v-12.12h-38.31v-20.63h43.15v-12.35h-57.87v79.31h59.46v-12.35h-44.74Z"/>
        <path class="cls-1" d="M406.16,204.82v-21.87h38.3v-12.12h-38.3v-20.63h43.18v-12.35h-57.9v79.31h59.49v-12.35h-44.77Z"/>
        <path class="cls-1" d="M460.55,137.85v12.47h26.29v66.84h14.72v-66.84h26.29v-12.47h-67.29Z"/>
      </g>
      <g>
        <polygon class="cls-1" points="37.45 187.95 37.45 169.1 23.74 159.98 23.74 135.99 47 151.46 64.27 141.48 81.53 151.46 104.39 136.25 108.58 133.48 108.58 48.64 64.27 23.06 19.96 48.64 19.96 80.75 0 94.02 0 37.11 64.27 0 128.54 37.11 128.54 144.18 109.92 156.58 91.09 169.07 91.09 187.95 64.27 203.42 37.45 187.95"/>
        <polygon class="cls-3" points="127.67 37.61 127.67 143.71 109.44 155.86 104.87 158.89 90.23 168.61 90.23 187.45 64.27 202.42 38.31 187.45 38.31 168.63 24.6 159.52 24.6 137.6 46.97 152.47 64.27 142.48 81.56 152.47 104.87 136.97 109.44 133.94 109.44 48.14 64.27 22.06 19.1 48.14 19.1 80.28 .86 92.4 .86 37.61 64.27 1 127.67 37.61"/>
        <polygon class="cls-1" points="0 209.46 0 99.95 18.62 87.54 37.45 75.05 37.45 56.18 64.27 40.7 91.09 56.18 91.09 75.05 104.6 84.01 104.6 108.01 81.53 92.66 64.27 102.62 47 92.66 19.96 110.64 19.96 197.96 64.27 223.52 108.58 197.96 108.58 163.4 111.48 161.45 128.54 150.1 128.54 209.46 64.27 246.6 0 209.46"/>
        <polygon class="cls-2" points="127.67 151.72 127.67 208.96 64.27 245.6 .86 208.96 .86 100.41 19.1 88.26 23.67 85.23 38.31 75.51 38.31 56.67 64.27 41.7 90.23 56.67 90.23 75.51 103.73 84.48 103.73 106.39 81.56 91.65 64.27 101.62 46.97 91.65 19.1 110.18 19.1 198.46 64.27 224.51 109.44 198.46 109.44 163.86 111.97 162.17 127.67 151.72"/>
      </g>
    </g>
  </g>
</svg>